<?xml version="1.0" standalone="no"?>
<!DOCTYPE svg PUBLIC "-//W3C//DTD SVG 20010904//EN"
 "http://www.w3.org/TR/2001/REC-SVG-20010904/DTD/svg10.dtd">
<svg version="1.0" xmlns="http://www.w3.org/2000/svg"
 width="778.000000pt" height="114.000000pt" viewBox="0 0 778.000000 114.000000"
 preserveAspectRatio="xMidYMid meet">

<g transform="translate(0.000000,114.000000) scale(0.100000,-0.100000)"
fill="#000000" stroke="none">
<path d="M2925 632 c-125 -273 -235 -509 -242 -524 l-14 -28 94 0 93 0 34 80
35 80 232 0 233 0 36 -80 37 -80 89 0 c81 0 89 2 84 18 -9 28 -467 1016 -475
1024 -3 4 -110 -216 -236 -490z m314 -61 c39 -85 71 -156 71 -158 0 -2 -67 -3
-150 -3 -82 0 -150 3 -150 6 0 20 145 323 151 317 4 -5 40 -77 78 -162z"/>
<path d="M4905 632 c-125 -273 -235 -509 -242 -524 l-14 -28 94 0 93 0 34 80
35 80 232 0 233 0 36 -80 37 -80 89 0 c81 0 89 2 84 18 -9 28 -467 1016 -475
1024 -3 4 -110 -216 -236 -490z m314 -61 c39 -85 71 -156 71 -158 0 -2 -67 -3
-150 -3 -82 0 -150 3 -150 6 0 20 145 323 151 317 4 -5 40 -77 78 -162z"/>
<path d="M845 1098 c-2 -7 -5 -19 -7 -26 -3 -10 -725 -342 -744 -342 -2 0 -4
7 -4 15 0 9 -9 15 -25 15 l-25 0 0 -190 c0 -172 -2 -190 -17 -190 -10 0 -13
-3 -8 -9 6 -5 199 -90 431 -189 l421 -180 424 181 c233 100 426 183 429 185 3
2 -3 8 -13 13 -15 9 -17 30 -17 194 0 178 -1 185 -20 185 -11 0 -20 -7 -20
-15 0 -8 -3 -15 -6 -15 -4 0 -175 75 -380 166 -341 152 -374 168 -374 190 0
17 -6 24 -20 24 -11 0 -22 -6 -25 -12z m717 -405 l-51 -22 -308 137 -308 138
-3 46 -3 46 362 -161 361 -162 -50 -22z m-722 295 l0 -43 -310 -138 -310 -137
-48 24 -47 24 35 15 c19 9 177 79 350 156 173 77 318 141 323 141 4 0 7 -19 7
-42z m-7 -158 c-4 -4 -113 -53 -241 -110 -224 -99 -234 -102 -270 -91 -40 12
-69 28 -62 33 3 2 133 61 290 131 l285 126 3 -41 c2 -22 0 -44 -5 -48z m322
-25 c132 -59 260 -116 285 -127 l44 -19 -43 -20 c-24 -10 -50 -19 -58 -19 -9
0 -123 48 -254 106 l-239 107 0 44 c0 32 4 44 13 40 6 -3 120 -53 252 -112z
m177 -213 c-39 -30 -61 -25 -250 56 l-187 80 -3 40 -3 41 230 -102 c200 -89
228 -104 213 -115z m-494 171 l-3 -36 -185 -79 c-179 -77 -186 -79 -222 -67
-21 7 -38 15 -38 19 0 6 428 200 443 200 5 0 7 -16 5 -37z m-691 -84 c30 -14
42 -23 33 -27 -8 -2 -32 -13 -52 -24 l-38 -18 0 45 c0 25 2 45 4 45 2 0 26
-10 53 -21z m1503 -17 c0 -21 -3 -41 -6 -45 -6 -6 -94 33 -94 42 0 7 70 39 88
40 7 1 12 -13 12 -37z m-613 -44 c95 -40 173 -75 173 -78 -1 -12 -314 -142
-318 -131 -5 14 -35 14 -48 1 -8 -8 -59 10 -167 57 -86 37 -156 70 -156 73 0
4 318 144 339 149 3 1 83 -31 177 -71z m-756 3 l43 -20 -48 -20 c-26 -12 -51
-21 -54 -21 -13 0 -92 35 -92 41 0 8 70 37 91 38 9 1 36 -8 60 -18z m1284 2
c19 -9 35 -20 35 -23 0 -4 -20 -15 -45 -25 -43 -16 -47 -16 -90 2 -25 10 -45
21 -45 24 0 9 70 38 92 38 10 1 33 -7 53 -16z m-1377 -78 c3 -3 -85 -45 -94
-45 -2 0 -4 20 -4 45 l0 44 47 -20 c26 -11 49 -22 51 -24z m202 25 l35 -18
-50 -22 c-48 -20 -51 -21 -85 -5 l-35 17 45 24 c54 28 47 27 90 4z m1041 -4
l54 -24 -39 -16 c-47 -19 -34 -20 -92 5 l-48 22 35 18 c19 10 35 18 35 19 1 0
26 -11 55 -24z m219 -22 c0 -42 -1 -45 -22 -38 -13 3 -36 13 -52 22 l-30 15
45 23 c24 13 47 23 52 24 4 0 7 -21 7 -46z m-1389 -30 c36 -18 37 -17 -22 -42
-44 -19 -46 -19 -80 -2 l-34 18 45 20 c56 25 55 25 91 6z m414 -69 l160 -72 3
-47 c2 -26 0 -46 -5 -43 -7 4 -317 143 -413 185 l-35 15 50 22 c28 12 57 20
65 17 8 -3 87 -38 175 -77z m652 46 c15 -8 11 -12 -27 -29 -25 -11 -108 -48
-185 -82 -77 -34 -159 -71 -183 -81 l-43 -19 3 46 3 45 175 78 c188 84 184 84
257 42z m251 10 l34 -17 -39 -15 c-36 -14 -41 -14 -88 7 l-50 22 35 15 c37 16
56 14 108 -12z m-1435 -48 c9 -3 17 -9 17 -13 0 -4 -8 -10 -17 -13 -10 -2 -26
-8 -35 -12 -15 -6 -18 -2 -18 25 0 27 3 31 18 25 9 -4 25 -10 35 -12z m465
-94 l232 -103 0 -44 c0 -31 -4 -43 -12 -39 -34 13 -564 249 -567 253 -7 6 83
43 99 40 8 -2 120 -50 248 -107z m822 90 l45 -21 -25 -13 c-39 -20 -547 -245
-554 -245 -3 0 -6 19 -6 43 l0 42 238 106 c130 59 242 107 247 108 6 0 30 -9
55 -20z m220 -9 c0 -35 1 -35 -48 -14 l-37 16 30 13 c46 21 55 18 55 -15z
m-1115 -163 l300 -134 3 -40 3 -40 -355 151 c-195 83 -355 153 -356 156 0 7
71 38 90 39 9 1 150 -59 315 -132z m1025 117 c22 -9 40 -19 40 -23 0 -3 -160
-74 -356 -158 l-355 -151 3 40 3 40 300 134 c165 73 306 134 312 134 7 0 31
-7 53 -16z"/>
<path d="M1897 1053 c-4 -3 -7 -224 -7 -490 l0 -483 80 0 80 0 2 218 3 217
180 -217 180 -217 104 0 104 -1 -20 22 c-37 42 -369 443 -377 456 -5 8 59 93
188 247 108 129 196 239 196 245 0 6 -37 10 -94 10 l-95 0 -183 -220 -183
-220 -3 220 -2 220 -74 0 c-40 0 -76 -3 -79 -7z"/>
<path d="M3443 978 c29 -46 102 -159 163 -253 l109 -170 3 -237 3 -238 80 0
79 0 0 238 0 237 160 250 160 250 -82 3 c-45 2 -86 1 -92 -1 -7 -3 -58 -77
-115 -166 -56 -88 -106 -163 -111 -166 -4 -3 -57 71 -117 165 l-108 170 -93 0
-92 0 53 -82z"/>
<path d="M4267 1053 c-4 -3 -7 -224 -7 -490 l0 -483 80 0 80 0 2 203 3 202
163 3 162 2 0 80 0 80 -165 0 -165 0 0 120 0 120 205 0 205 0 0 85 0 85 -278
0 c-153 0 -282 -3 -285 -7z"/>
<path d="M5680 571 l0 -491 243 0 c296 0 324 6 402 84 66 66 90 130 83 225 -3
39 -14 82 -26 106 -24 47 -83 106 -130 130 -25 12 -32 21 -27 33 44 106 26
220 -49 309 -13 16 -48 42 -78 58 -52 30 -55 30 -235 33 l-183 4 0 -491z m351
306 c74 -49 70 -167 -8 -208 -16 -8 -56 -14 -102 -14 l-76 0 -3 109 c-1 61 0
116 3 124 8 21 151 12 186 -11z m149 -400 c34 -17 70 -74 70 -111 0 -17 -9
-46 -20 -64 -33 -54 -70 -63 -238 -60 l-147 3 -3 123 -3 122 158 0 c106 0 166
-4 183 -13z"/>
<path d="M6537 1053 c-4 -3 -7 -224 -7 -490 l0 -483 285 0 285 0 0 80 0 80
-202 2 -203 3 -3 408 -2 407 -73 0 c-41 0 -77 -3 -80 -7z"/>
<path d="M7217 1053 c-4 -3 -7 -224 -7 -490 l0 -483 285 0 285 0 0 80 0 80
-202 2 -203 3 0 120 0 120 163 3 162 2 0 80 0 80 -165 0 -165 0 0 120 0 120
205 0 205 0 0 85 0 85 -278 0 c-153 0 -282 -3 -285 -7z"/>
</g>
</svg>
