<?xml version="1.0" standalone="no"?>
<!DOCTYPE svg PUBLIC "-//W3C//DTD SVG 20010904//EN"
 "http://www.w3.org/TR/2001/REC-SVG-20010904/DTD/svg10.dtd">
<svg version="1.0" xmlns="http://www.w3.org/2000/svg"
 width="548.000000pt" height="498.000000pt" viewBox="0 0 548.000000 498.000000"
 preserveAspectRatio="xMidYMid meet">

<g transform="translate(0.000000,498.000000) scale(0.100000,-0.100000)">
<path d="M9 4963 c5 -10 619 -1127 1365 -2483 745 -1355 1358 -2465 1363
-2467 6 -1 1844 3325 2701 4888 l43 79 -2741 0 c-2607 0 -2740 -1 -2731 -17z
m5088 -265 c-145 -268 -2350 -4264 -2356 -4270 -5 -6 -2240 4041 -2379 4308
l-22 44 2401 0 2401 0 -45 -82z"/>
<path d="M1854 4641 c-47 -29 -64 -59 -64 -114 0 -42 4 -53 33 -80 18 -18 60
-48 94 -69 34 -20 69 -48 78 -62 16 -24 16 -28 1 -51 -28 -42 -131 -42 -167 1
-10 12 -15 9 -35 -18 -13 -17 -24 -35 -24 -39 0 -4 23 -19 52 -33 110 -55 230
-17 257 81 20 72 -22 135 -130 193 -85 45 -104 82 -61 118 22 17 83 15 109 -3
20 -14 23 -13 43 15 25 35 20 47 -26 66 -48 20 -123 18 -160 -5z"/>
<path d="M2140 4405 l0 -235 40 0 40 0 0 60 0 60 65 0 c76 0 119 16 157 56 83
89 53 232 -59 280 -21 9 -70 14 -138 14 l-105 0 0 -235z m243 127 c16 -17 22
-34 22 -67 0 -67 -26 -88 -115 -93 l-70 -4 0 97 0 97 70 -4 c56 -3 75 -8 93
-26z"/>
<path d="M2540 4405 l0 -235 40 0 40 0 0 60 c0 55 2 60 22 60 14 0 46 -23 84
-61 59 -58 62 -60 107 -57 l47 3 -56 63 c-31 34 -51 62 -45 62 22 0 81 63 97
105 30 80 -2 169 -80 216 -26 16 -50 19 -143 19 l-113 0 0 -235z m235 131 c32
-32 40 -69 25 -107 -19 -45 -46 -59 -117 -59 l-63 0 0 95 0 95 65 0 c56 0 69
-4 90 -24z"/>
<path d="M2950 4405 l0 -235 40 0 40 0 0 235 0 235 -40 0 -40 0 0 -235z"/>
<path d="M3080 4600 l0 -40 55 0 55 0 0 -195 0 -195 40 0 40 0 0 195 0 195 60
0 60 0 0 40 0 40 -155 0 -155 0 0 -40z"/>
<path d="M3440 4405 l0 -235 135 0 135 0 0 40 0 40 -95 0 -95 0 0 60 0 60 75
0 75 0 0 40 0 40 -75 0 -75 0 0 55 0 55 95 0 95 0 0 40 0 40 -135 0 -135 0 0
-235z"/>
<path d="M1050 4000 l0 -50 1690 0 1690 0 0 50 0 50 -1690 0 -1690 0 0 -50z"/>
<path d="M1942 3766 c-35 -33 -37 -38 -37 -96 0 -58 2 -63 37 -96 32 -28 45
-34 84 -34 41 0 51 5 85 39 35 35 39 44 39 91 0 47 -4 56 -39 91 -34 34 -44
39 -85 39 -39 0 -52 -6 -84 -34z m139 -35 c20 -20 29 -39 29 -61 0 -40 -47
-90 -85 -90 -38 0 -85 50 -85 90 0 40 47 90 85 90 16 0 38 -12 56 -29z"/>
<path d="M2973 3790 c-12 -5 -27 -19 -33 -30 -19 -36 -3 -68 50 -101 32 -19
50 -38 50 -50 0 -23 -40 -35 -69 -19 -12 6 -26 8 -31 5 -16 -10 -11 -34 9 -45
45 -23 117 -3 127 37 11 40 -4 67 -56 101 -27 17 -50 36 -50 42 0 17 39 31 58
21 13 -7 23 -6 30 1 17 17 15 23 -13 36 -30 14 -42 14 -72 2z"/>
<path d="M3520 3675 c0 -117 1 -125 20 -125 17 0 19 8 22 72 l3 72 59 -75 c33
-41 63 -78 68 -84 4 -5 8 50 8 123 0 125 -1 132 -20 132 -18 0 -20 -7 -20 -77
l0 -76 -62 81 c-35 45 -66 81 -70 82 -5 0 -8 -56 -8 -125z"/>
<path d="M3772 3766 c-35 -33 -37 -38 -37 -96 0 -58 2 -63 37 -96 32 -28 45
-34 84 -34 41 0 51 5 85 39 31 31 39 46 39 75 l0 36 -65 0 c-58 0 -65 -2 -65
-19 0 -17 8 -20 48 -23 l47 -3 -32 -32 c-40 -42 -75 -43 -114 -4 -20 20 -29
39 -29 61 0 22 9 41 29 61 33 33 65 37 100 13 20 -15 25 -15 38 -2 23 24 -27
58 -83 58 -36 0 -51 -6 -82 -34z"/>
<path d="M1500 3670 c0 -113 1 -120 20 -120 16 0 20 7 20 30 0 28 3 30 36 30
48 0 73 15 90 56 12 29 12 39 0 68 -18 44 -42 56 -110 56 l-56 0 0 -120z m111
70 c12 -7 19 -21 19 -40 0 -32 -23 -50 -64 -50 -24 0 -26 3 -26 50 0 47 2 50
26 50 14 0 34 -5 45 -10z"/>
<path d="M1700 3671 c0 -114 1 -121 20 -121 16 0 20 7 20 30 0 18 5 30 13 30
7 0 26 -13 42 -30 19 -20 38 -30 59 -30 l30 0 -28 29 -29 30 27 31 c32 39 33
80 2 116 -20 24 -32 28 -90 32 l-66 4 0 -121z m120 59 c11 -11 20 -25 20 -32
0 -24 -34 -48 -67 -48 -32 0 -33 1 -33 43 0 24 3 47 7 50 13 14 54 6 73 -13z"/>
<path d="M2298 3666 c31 -69 59 -126 63 -126 4 0 12 14 19 30 16 39 25 38 43
-7 l15 -38 20 45 c11 25 36 80 56 124 42 92 43 98 14 94 -16 -2 -29 -21 -52
-75 -17 -40 -34 -73 -37 -73 -3 0 -13 17 -23 38 l-18 37 -15 -37 c-8 -21 -18
-38 -22 -38 -3 0 -20 33 -37 73 -26 60 -35 73 -57 75 -25 3 -25 3 31 -122z"/>
<path d="M2560 3671 c0 -114 1 -121 20 -121 16 0 20 7 20 30 0 18 5 30 13 30
7 0 26 -13 42 -30 19 -20 38 -30 59 -30 l30 0 -28 29 -29 30 27 31 c32 39 33
80 2 116 -20 24 -32 28 -90 32 l-66 4 0 -121z m120 59 c11 -11 20 -25 20 -32
0 -24 -34 -48 -67 -48 -32 0 -33 1 -33 43 0 24 3 47 7 50 13 14 54 6 73 -13z"/>
<path d="M2770 3670 l0 -120 70 0 c63 0 70 2 70 20 0 17 -7 20 -51 20 -49 0
-50 1 -47 28 3 23 8 27 41 30 29 3 37 7 37 23 0 16 -7 19 -41 19 -38 0 -40 1
-37 28 3 25 7 27 51 30 39 3 47 6 47 23 0 17 -7 19 -70 19 l-70 0 0 -120z"/>
<path d="M3080 3770 c0 -16 7 -20 30 -20 l30 0 0 -100 c0 -93 1 -100 20 -100
19 0 20 7 20 100 l0 100 30 0 c23 0 30 4 30 20 0 18 -7 20 -80 20 -73 0 -80
-2 -80 -20z"/>
<path d="M3260 3670 l0 -120 70 0 c63 0 70 2 70 20 0 17 -7 20 -50 20 l-50 0
0 100 c0 93 -1 100 -20 100 -19 0 -20 -7 -20 -120z"/>
<path d="M3430 3670 c0 -113 1 -120 20 -120 19 0 20 7 20 120 0 113 -1 120
-20 120 -19 0 -20 -7 -20 -120z"/>
<path d="M2375 3370 c-33 -5 -152 -13 -265 -19 -113 -7 -224 -14 -248 -17
l-43 -5 3 -77 c3 -74 4 -77 28 -80 15 -2 37 -19 53 -40 54 -70 138 -191 170
-245 50 -85 109 -176 139 -214 29 -37 48 -90 48 -133 1 -48 11 -53 74 -30 43
17 56 26 52 38 -28 101 -40 213 -41 372 0 213 12 261 73 282 52 18 592 18 644
0 61 -21 73 -69 73 -282 -1 -159 -13 -271 -41 -372 -4 -12 9 -21 52 -38 63
-23 73 -18 74 30 0 43 19 96 48 133 30 38 89 129 139 214 32 54 116 175 170
245 16 21 38 38 53 40 24 3 25 6 28 80 l3 77 -43 5 c-24 3 -134 10 -246 16
-112 6 -240 15 -285 21 -105 13 -142 7 -245 -41 -47 -22 -93 -40 -102 -40 -9
0 -57 18 -105 41 -96 45 -155 54 -260 39z"/>
<path d="M2385 2422 c-27 -15 -51 -34 -53 -42 -1 -9 26 -58 60 -110 83 -126
162 -254 194 -315 39 -73 143 -225 154 -225 11 0 115 152 154 225 32 61 111
189 194 315 34 52 61 101 60 110 -2 8 -27 28 -55 43 l-52 28 -28 -42 c-71
-108 -140 -151 -252 -157 -125 -7 -213 35 -275 132 -19 30 -38 56 -43 59 -5 3
-31 -7 -58 -21z"/>
</g>
</svg>
